<?xml version="1.0" encoding="UTF-8"?>
<svg width="48px" height="48px" viewBox="0 0 48 48" version="1.1" xmlns="http://www.w3.org/2000/svg" xmlns:xlink="http://www.w3.org/1999/xlink">
    <title>favicon</title>
    <defs>
        <linearGradient x1="23.1983422%" y1="17.225855%" x2="73.272626%" y2="78.1102819%" id="linearGradient-1">
            <stop stop-color="#60BCD1" offset="0%"></stop>
            <stop stop-color="#742183" offset="100%"></stop>
        </linearGradient>
    </defs>
    <g id="favicon" stroke="none" stroke-width="1" fill="none" fill-rule="evenodd">
        <path d="M32.0163946,0 C31.2636681,0 30.519923,0.1180412 29.7971345,0.35326823 L29.7971345,0.35326823 L29.7967068,0.352840545 L24.3804975,2.09694205 L11.4190605,6.26986956 L11.3579015,6.28868772 C7.96336161,7.38142419 5.68294248,10.5150759 5.68294248,14.0862499 L5.68294248,14.0862499 C5.68294248,19.1757075 10.3233302,23.1848314 14.8106066,27.0613729 L14.8106066,27.0613729 C15.9461116,28.0420557 17.1051394,29.0436952 18.179913,30.0551714 L18.179913,30.0551714 L4,36.8549433 L4.54358828,38.4780098 C5.55976905,41.5137216 9.23016608,46.493264 15.1749947,47.7694775 L15.1749947,47.7694775 C15.8900848,47.923872 16.6068857,48 17.3155606,48 L17.3155606,48 C19.2717941,48 21.1660133,47.4196308 22.7937843,46.3025162 L22.7937843,46.3025162 L22.8793214,46.2447787 L22.8797491,46.2452064 L39.4756576,35.0407014 C41.9818946,33.4484283 43.4775109,30.7347637 43.4775109,27.77518 L43.4775109,27.77518 C43.4775109,22.8011975 39.2472735,19.1278067 35.1560339,15.5745955 L35.1560339,15.5745955 C33.5984033,14.2213985 32.100221,12.9195238 30.9300734,11.628769 L30.9300734,11.628769 L41.1000071,7.75864281 L40.3186257,5.90761993 C39.1176848,3.06265593 36.0075558,0 32.0163946,0 Z M22.0645805,9.84660346 C22.0119752,9.78801055 21.9593699,9.73027301 21.9067646,9.67339083 L21.9067646,9.67339083 C21.6865065,9.43688075 21.4641101,9.20764131 21.2374367,8.99337087 L21.2374367,8.99337087 C21.2199016,8.97626345 21.2019388,8.96172215 21.1844037,8.94504241 L21.1844037,8.94504241 C20.970561,8.74445791 20.7532967,8.5558486 20.5338941,8.37493763 L20.5338941,8.37493763 C20.4800057,8.33088602 20.4261173,8.28597904 20.3718013,8.24278281 L20.3718013,8.24278281 C20.1374296,8.05631193 19.9013472,7.87839475 19.660988,7.71416352 L19.660988,7.71416352 C19.6532896,7.70860361 19.646019,7.70261601 19.6383206,7.69748378 L19.6383206,7.69748378 L30.8094661,4.10107634 L30.9950816,4.03948963 C31.3243995,3.93128519 31.6678309,3.87654145 32.0163946,3.87654145 L32.0163946,3.87654145 C33.3991019,3.87654145 34.6958443,4.66519353 35.627771,5.69334949 L35.627771,5.69334949 L22.7163732,10.607456 C22.5025305,10.3414356 22.2848385,10.0903842 22.0645805,9.84660346 L22.0645805,9.84660346 Z M17.3454986,24.1274503 C13.5177133,20.8210136 9.5603393,17.401668 9.5603393,14.0862499 L9.5603393,14.0862499 C9.5603393,12.2044337 10.7599971,10.5539953 12.5271937,9.98517357 L12.5271937,9.98517357 L12.5926296,9.96507235 C13.00278,9.83633901 13.4326039,9.77090313 13.8709815,9.77090313 L13.8709815,9.77090313 C16.3652434,9.77090313 18.4489272,11.1253831 20.4295388,14.0327892 L20.4295388,14.0327892 L21.2908974,15.2974553 L21.6604177,15.1571744 L27.0954451,13.0897427 C28.5842184,15.0023523 30.6268444,16.7759641 32.6138713,18.5016751 L32.6138713,18.5016751 C36.0490413,21.4847815 39.6005417,24.5692494 39.6005417,27.77518 L39.6005417,27.77518 C39.6005417,29.4063725 38.7712595,30.9024164 37.3817093,31.7778887 L37.3817093,31.7778887 L27.0586642,38.7461687 C27.0672179,38.5755221 27.0719224,38.4044479 27.0719224,38.232946 L27.0719224,38.232946 C27.0719224,37.6765272 27.0253047,37.1248129 26.9312139,36.5756647 L26.9312139,36.5756647 C26.8538028,36.1231734 26.7391831,35.6728206 26.5963362,35.2216124 L26.5963362,35.2216124 C26.2178345,34.0279421 25.6113764,32.8329888 24.7568608,31.6085252 L24.7568608,31.6085252 C24.7299166,31.5704612 24.7004063,31.5319695 24.6734621,31.4939055 L24.6734621,31.4939055 C24.5673961,31.3442156 24.4604747,31.1945256 24.3462827,31.0439803 L24.3462827,31.0439803 C23.9190249,30.4768693 23.4395894,29.9029154 22.9066933,29.318697 L22.9066933,29.318697 L21.9358472,28.2546154 L21.9024877,28.2704398 C20.4774396,26.836838 18.8915817,25.4635398 17.3454986,24.1274503 L17.3454986,24.1274503 Z M15.9905909,43.9793285 C12.5892081,43.2496971 10.1723573,40.8144558 8.95003208,38.7808112 L8.95003208,38.7808112 L20.9688502,33.0173213 C20.9859577,33.0387055 21.0034928,33.0600898 21.0197448,33.0814741 L21.0197448,33.0814741 C21.1809823,33.2859078 21.3345213,33.4877753 21.4769406,33.6870768 L21.4769406,33.6870768 C21.5004633,33.7195809 21.5214199,33.7516573 21.5440872,33.7837337 L21.5440872,33.7837337 C21.6779528,33.9744814 21.80412,34.1630907 21.9208782,34.3491339 L21.9208782,34.3491339 C21.9358472,34.373512 21.9529546,34.3983178 21.9674959,34.4222682 L21.9674959,34.4222682 C22.0889586,34.6185758 22.1984461,34.8118897 22.3010906,35.0039205 L22.3010906,35.0039205 C22.3229026,35.0445506 22.3447145,35.084753 22.3652434,35.1249554 L22.3652434,35.1249554 C22.4627557,35.3139924 22.5529974,35.5017464 22.6329746,35.6873619 L22.6329746,35.6873619 C22.6470882,35.7207214 22.6603464,35.7540808 22.6740324,35.7870126 L22.6740324,35.7870126 C22.7505881,35.9704897 22.8198731,36.1531114 22.8788937,36.3340224 L22.8788937,36.3340224 C22.8831706,36.3468529 22.8883028,36.3601112 22.8925797,36.3733694 L22.8925797,36.3733694 C22.9528833,36.5606957 23.0012118,36.7467389 23.0435526,36.9319267 L23.0435526,36.9319267 C23.0516787,36.9678523 23.0598047,37.0042056 23.067503,37.0397035 L23.067503,37.0397035 C23.1051394,37.2201868 23.1346497,37.399387 23.1551786,37.5781595 L23.1551786,37.5781595 C23.1594554,37.6110913 23.1615938,37.6435954 23.1645876,37.6769549 L23.1645876,37.6769549 C23.1829781,37.8629981 23.1949533,38.0481859 23.1949533,38.232946 L23.1949533,38.232946 C23.1949533,38.4707392 23.180412,38.7068216 23.1513294,38.9407656 L23.1513294,38.9407656 C23.1402096,39.0365671 23.1158315,39.1298026 23.0991518,39.2247487 L23.0991518,39.2247487 C23.0756291,39.3607527 23.0572386,39.4984675 23.0243068,39.6319053 L23.0243068,39.6319053 C22.998218,39.7358329 22.960154,39.8354836 22.9285052,39.9377005 L22.9285052,39.9377005 C22.8917243,40.0583078 22.8600756,40.1814812 22.8155963,40.2995224 L22.8155963,40.2995224 C22.7749661,40.4072992 22.7219331,40.5086606 22.6753154,40.6134436 L22.6753154,40.6134436 C22.626987,40.721648 22.5846461,40.8319909 22.5299023,40.9372015 L22.5299023,40.9372015 C22.476014,41.0411291 22.4097227,41.1386414 22.3498467,41.2387198 L22.3498467,41.2387198 C22.2899708,41.3387982 22.2360824,41.4414427 22.1706465,41.537672 L22.1706465,41.537672 C22.1043553,41.6351843 22.0260888,41.7254259 21.95381,41.8195167 L21.95381,41.8195167 C21.8828142,41.9110414 21.817806,42.0064153 21.741678,42.0936631 L21.741678,42.0936631 C21.6629838,42.1839048 21.5735975,42.2655927 21.4893435,42.3511298 L21.4893435,42.3511298 C21.4080833,42.4341008 21.3319552,42.5209209 21.2459904,42.5991874 L21.2459904,42.5991874 C21.1557488,42.6808753 21.0552427,42.7527265 20.9598688,42.8288545 L20.9598688,42.8288545 C20.8679165,42.9024164 20.7806686,42.9811106 20.6840117,43.0495402 L20.6840117,43.0495402 L20.6185758,43.0940195 C19.6314777,43.770618 18.4861359,44.1204648 17.3001639,44.1204648 L17.3001639,44.1204648 C16.8669185,44.1204648 16.4285409,44.073847 15.9905909,43.9793285 L15.9905909,43.9793285 Z" id="S" fill="url(#linearGradient-1)"></path>
    </g>
</svg>