<svg xmlns="http://www.w3.org/2000/svg" width="31" height="24" viewBox="0 0 31 24"><path fill="#C4C4C4" d="M9.98035714,12.1178571 C9.98035714,12.7714286 9.46071429,13.2696429 8.80178571,13.2696429 C8.30892857,13.2696429 7.94464286,12.9910714 7.94464286,12.4660714 C7.94464286,11.8125 8.45357143,11.2875 9.10714286,11.2875 C9.60535714,11.2875 9.98035714,11.5928571 9.98035714,12.1178571 Z M4.3125,9.51964286 L4.06071429,9.51964286 C3.98035714,9.51964286 3.9,9.57321429 3.88928571,9.66428571 L3.65892857,11.0946429 L4.09821429,11.0785714 C4.6875,11.0785714 5.14285714,10.9982143 5.25,10.3178571 C5.37321429,9.6 4.91785714,9.51964286 4.3125,9.51964286 L4.3125,9.51964286 Z M19.5267857,9.51964286 L19.2857143,9.51964286 C19.1892857,9.51964286 19.125,9.57321429 19.1142857,9.66428571 L18.8892857,11.0946429 L19.3178571,11.0785714 C20.0142857,11.0785714 20.4964286,10.9178571 20.4964286,10.1142857 C20.4910714,9.54642857 19.9821429,9.51964286 19.5267857,9.51964286 L19.5267857,9.51964286 Z M30.8571429,2.57142857 L30.8571429,21.4285714 C30.8571429,22.8482143 29.7053571,24 28.2857143,24 L2.57142857,24 C1.15178571,24 0,22.8482143 0,21.4285714 L0,2.57142857 C0,1.15178571 1.15178571,0 2.57142857,0 L28.2857143,0 C29.7053571,0 30.8571429,1.15178571 30.8571429,2.57142857 Z M6.87321429,9.825 C6.87321429,8.7 6.00535714,8.325 5.01428571,8.325 L2.87142857,8.325 C2.7375,8.325 2.60357143,8.43214286 2.59285714,8.57678571 L1.71428571,14.0464286 C1.69821429,14.1535714 1.77857143,14.2607143 1.88571429,14.2607143 L2.90357143,14.2607143 C3.04821429,14.2607143 3.18214286,14.1053571 3.19821429,13.9553571 L3.43928571,12.5303571 C3.49285714,12.1446429 4.14642857,12.2785714 4.40357143,12.2785714 C5.93571429,12.2785714 6.87321429,11.3678571 6.87321429,9.825 L6.87321429,9.825 Z M11.3839286,10.2964286 L10.3660714,10.2964286 C10.1625,10.2964286 10.1517857,10.5910714 10.1410714,10.7357143 C9.83035714,10.2803571 9.38035714,10.2 8.87142857,10.2 C7.55892857,10.2 6.55714286,11.3517857 6.55714286,12.6214286 C6.55714286,13.6660714 7.21071429,14.3464286 8.25535714,14.3464286 C8.7375,14.3464286 9.3375,14.0839286 9.675,13.7089286 C9.64821429,13.7892857 9.62142857,13.9607143 9.62142857,14.0410714 C9.62142857,14.1642857 9.675,14.2553571 9.79285714,14.2553571 L10.7142857,14.2553571 C10.8589286,14.2553571 10.9821429,14.1 11.0089286,13.95 L11.5553571,10.5053571 C11.5714286,10.4035714 11.4910714,10.2964286 11.3839286,10.2964286 Z M13.5535714,15.5410714 L16.9660714,10.5803571 C16.9928571,10.5535714 16.9928571,10.5267857 16.9928571,10.4892857 C16.9928571,10.3982143 16.9125,10.3017857 16.8214286,10.3017857 L15.7928571,10.3017857 C15.7017857,10.3017857 15.6053571,10.3553571 15.5517857,10.4357143 L14.1321429,12.525 L13.5428571,10.5160714 C13.5,10.3982143 13.3821429,10.3017857 13.2482143,10.3017857 L12.2464286,10.3017857 C12.1553571,10.3017857 12.075,10.3982143 12.075,10.4892857 C12.075,10.5535714 13.1196429,13.5321429 13.2107143,13.8160714 C13.0660714,14.0196429 12.1125,15.3482143 12.1125,15.5089286 C12.1125,15.6053571 12.1928571,15.6803571 12.2839286,15.6803571 L13.3125,15.6803571 C13.4089286,15.675 13.5,15.6214286 13.5535714,15.5410714 L13.5535714,15.5410714 Z M22.0875,9.825 C22.0875,8.7 21.2196429,8.325 20.2285714,8.325 L18.1017857,8.325 C17.9571429,8.325 17.8232143,8.43214286 17.8071429,8.57678571 L16.9392857,14.0410714 C16.9285714,14.1482143 17.0089286,14.2553571 17.1107143,14.2553571 L18.2089286,14.2553571 C18.3160714,14.2553571 18.3964286,14.175 18.4232143,14.0839286 L18.6642857,12.5303571 C18.7178571,12.1446429 19.3714286,12.2785714 19.6285714,12.2785714 C21.15,12.2785714 22.0875,11.3678571 22.0875,9.825 Z M26.5982143,10.2964286 L25.5803571,10.2964286 C25.3767857,10.2964286 25.3660714,10.5910714 25.35,10.7357143 C25.0553571,10.2803571 24.6,10.2 24.0803571,10.2 C22.7678571,10.2 21.7660714,11.3517857 21.7660714,12.6214286 C21.7660714,13.6660714 22.4196429,14.3464286 23.4642857,14.3464286 C23.9625,14.3464286 24.5625,14.0839286 24.8839286,13.7089286 C24.8678571,13.7892857 24.8303571,13.9607143 24.8303571,14.0410714 C24.8303571,14.1642857 24.8839286,14.2553571 25.0017857,14.2553571 L25.9285714,14.2553571 C26.0732143,14.2553571 26.1964286,14.1 26.2232143,13.95 L26.7696429,10.5053571 C26.7857143,10.4035714 26.7053571,10.2964286 26.5982143,10.2964286 L26.5982143,10.2964286 Z M29.1428571,8.5125 C29.1428571,8.40535714 29.0625,8.325 28.9714286,8.325 L27.9803571,8.325 C27.9,8.325 27.8196429,8.38928571 27.8089286,8.46964286 L26.9410714,14.0410714 L26.925,14.0678571 C26.925,14.1642857 27.0053571,14.2553571 27.1125,14.2553571 L27.9964286,14.2553571 C28.1303571,14.2553571 28.2642857,14.1 28.275,13.95 L29.1428571,8.52857143 L29.1428571,8.5125 L29.1428571,8.5125 Z M24.3214286,11.2875 C23.6678571,11.2875 23.1589286,11.8071429 23.1589286,12.4660714 C23.1589286,12.9857143 23.5339286,13.2696429 24.0267857,13.2696429 C24.6696429,13.2696429 25.1892857,12.7767857 25.1892857,12.1178571 C25.1946429,11.5928571 24.8196429,11.2875 24.3214286,11.2875 Z"/></svg>