<?xml version="1.0" encoding="UTF-8"?>
<svg width="26px" height="20px" viewBox="0 0 26 20" version="1.1" xmlns="http://www.w3.org/2000/svg" xmlns:xlink="http://www.w3.org/1999/xlink">
    <title>Payment - Mastercard@2x</title>
    <g id="UI" stroke="none" strokeWidth="1" fill="none" fillRule="evenodd">
        <g id="Desktop---Checkout-(Payment)" transform="translate(-505.000000, -356.000000)" fill="#525252" fillRule="nonzero">
            <g id="Payment---Mastercard" transform="translate(505.000000, 356.000000)">
                <path d="M21.5580357,16.84375 C21.5580357,17.1473214 21.3526786,17.3660714 21.0580357,17.3660714 C20.7544643,17.3660714 20.5580357,17.1339286 20.5580357,16.84375 C20.5580357,16.5535714 20.7544643,16.3214286 21.0580357,16.3214286 C21.3526786,16.3214286 21.5580357,16.5535714 21.5580357,16.84375 Z M7.68303571,16.3214286 C7.36607143,16.3214286 7.18303571,16.5535714 7.18303571,16.84375 C7.18303571,17.1339286 7.36607143,17.3660714 7.68303571,17.3660714 C7.97321429,17.3660714 8.16964286,17.1473214 8.16964286,16.84375 C8.16517857,16.5535714 7.97321429,16.3214286 7.68303571,16.3214286 Z M12.9285714,16.3080357 C12.6875,16.3080357 12.5401786,16.4642857 12.5044643,16.6964286 L13.3571429,16.6964286 C13.3169643,16.4419643 13.1607143,16.3080357 12.9285714,16.3080357 Z M17.7410714,16.3214286 C17.4375,16.3214286 17.2544643,16.5535714 17.2544643,16.84375 C17.2544643,17.1339286 17.4375,17.3660714 17.7410714,17.3660714 C18.0446429,17.3660714 18.2410714,17.1473214 18.2410714,16.84375 C18.2410714,16.5535714 18.0446429,16.3214286 17.7410714,16.3214286 Z M22.46875,17.4866071 C22.46875,17.5 22.4821429,17.5089286 22.4821429,17.5357143 C22.4821429,17.5491071 22.46875,17.5580357 22.46875,17.5848214 C22.4553571,17.5982143 22.4553571,17.6071429 22.4464286,17.6205357 C22.4330357,17.6339286 22.4241071,17.6428571 22.3973214,17.6428571 C22.3839286,17.65625 22.375,17.65625 22.3482143,17.65625 C22.3348214,17.65625 22.3258929,17.65625 22.2991071,17.6428571 C22.2857143,17.6428571 22.2767857,17.6294643 22.2633929,17.6205357 C22.25,17.6071429 22.2410714,17.5982143 22.2410714,17.5848214 C22.2276786,17.5625 22.2276786,17.5491071 22.2276786,17.5357143 C22.2276786,17.5133929 22.2276786,17.5 22.2410714,17.4866071 C22.2410714,17.4642857 22.2544643,17.4508929 22.2633929,17.4375 C22.2767857,17.4241071 22.2857143,17.4241071 22.2991071,17.4151786 C22.3214286,17.4017857 22.3348214,17.4017857 22.3482143,17.4017857 C22.3705357,17.4017857 22.3839286,17.4017857 22.3973214,17.4151786 C22.4196429,17.4285714 22.4330357,17.4285714 22.4464286,17.4375 C22.4598214,17.4464286 22.4553571,17.4642857 22.46875,17.4866071 Z M22.3705357,17.5491071 C22.3928571,17.5491071 22.3928571,17.5357143 22.40625,17.5357143 C22.4196429,17.5223214 22.4196429,17.5133929 22.4196429,17.5 C22.4196429,17.4866071 22.4196429,17.4776786 22.40625,17.4642857 C22.3928571,17.4642857 22.3839286,17.4508929 22.3571429,17.4508929 L22.2857143,17.4508929 L22.2857143,17.6071429 L22.3214286,17.6071429 L22.3214286,17.5446429 L22.3348214,17.5446429 L22.3839286,17.6071429 L22.4196429,17.6071429 L22.3705357,17.5491071 L22.3705357,17.5491071 Z M25.7142857,2.14285714 L25.7142857,17.8571429 C25.7142857,19.0401786 24.7544643,20 23.5714286,20 L2.14285714,20 C0.959821429,20 0,19.0401786 0,17.8571429 L0,2.14285714 C0,0.959821429 0.959821429,0 2.14285714,0 L23.5714286,0 C24.7544643,0 25.7142857,0.959821429 25.7142857,2.14285714 Z M2.85714286,8.375 C2.85714286,11.7901786 5.62946429,14.5580357 9.04017857,14.5580357 C10.2544643,14.5580357 11.4464286,14.1919643 12.4553571,13.5267857 C9.20089286,10.8794643 9.22321429,5.88392857 12.4553571,3.23660714 C11.4464286,2.56696429 10.2544643,2.20535176 9.04017857,2.20535176 C5.62946429,2.20089286 2.85714286,4.97321429 2.85714286,8.375 Z M12.8571429,13.2321429 C16.0044643,10.7767857 15.9910714,5.99107143 12.8571429,3.52232143 C9.72321429,5.99107143 9.70982143,10.78125 12.8571429,13.2321429 Z M6.50446429,16.6383929 C6.50446429,16.25 6.25,15.9955357 5.84821429,15.9821429 C5.64285714,15.9821429 5.42410714,16.0446429 5.27678571,16.2723214 C5.16964286,16.0892857 4.98660714,15.9821429 4.73214286,15.9821429 C4.5625,15.9821429 4.39285714,16.0446429 4.25892857,16.2232143 L4.25892857,16.0267857 L3.89285714,16.0267857 L3.89285714,17.6651786 L4.25892857,17.6651786 C4.25892857,16.8214286 4.14732143,16.3169643 4.66071429,16.3169643 C5.11607143,16.3169643 5.02678571,16.7723214 5.02678571,17.6651786 L5.37946429,17.6651786 C5.37946429,16.8482143 5.26785714,16.3169643 5.78125,16.3169643 C6.23660714,16.3169643 6.14732143,16.7633929 6.14732143,17.6651786 L6.51339286,17.6651786 L6.51339286,16.6383929 L6.50446429,16.6383929 Z M8.50892857,16.0267857 L8.15625,16.0267857 L8.15625,16.2232143 C8.03571429,16.0758929 7.86607143,15.9821429 7.63392857,15.9821429 C7.17410714,15.9821429 6.82142857,16.3482143 6.82142857,16.84375 C6.82142857,17.34375 7.17410714,17.7053571 7.63392857,17.7053571 C7.86607143,17.7053571 8.03571429,17.6205357 8.15625,17.4642857 L8.15625,17.6696429 L8.50892857,17.6696429 L8.50892857,16.0267857 Z M10.3169643,17.1696429 C10.3169643,16.5 9.29464286,16.8035714 9.29464286,16.4910714 C9.29464286,16.2366071 9.82589286,16.2767857 10.1205357,16.4419643 L10.2678571,16.1517857 C9.84821429,15.8794643 8.91964286,15.8839286 8.91964286,16.5178571 C8.91964286,17.15625 9.94196429,16.8883929 9.94196429,17.1875 C9.94196429,17.46875 9.33928571,17.4464286 9.01785714,17.2232143 L8.86160714,17.5044643 C9.36160714,17.84375 10.3169643,17.7723214 10.3169643,17.1696429 L10.3169643,17.1696429 Z M11.8973214,17.5848214 L11.7991071,17.28125 C11.6294643,17.375 11.2544643,17.4776786 11.2544643,17.0982143 L11.2544643,16.3571429 L11.8392857,16.3571429 L11.8392857,16.0267857 L11.2544643,16.0267857 L11.2544643,15.5267857 L10.8883929,15.5267857 L10.8883929,16.0267857 L10.5491071,16.0267857 L10.5491071,16.3526786 L10.8883929,16.3526786 L10.8883929,17.0982143 C10.8883929,17.8839286 11.6607143,17.7410714 11.8973214,17.5848214 L11.8973214,17.5848214 Z M12.4910714,16.9866071 L13.71875,16.9866071 C13.71875,16.2633929 13.3883929,15.9776786 12.9419643,15.9776786 C12.46875,15.9776786 12.1294643,16.3303571 12.1294643,16.8392857 C12.1294643,17.7544643 13.1383929,17.90625 13.6383929,17.4732143 L13.46875,17.2053571 C13.1205357,17.4910714 12.59375,17.4642857 12.4910714,16.9866071 L12.4910714,16.9866071 Z M15.1294643,16.0267857 C14.9241071,15.9375 14.6116071,15.9464286 14.4508929,16.2232143 L14.4508929,16.0267857 L14.0848214,16.0267857 L14.0848214,17.6651786 L14.4508929,17.6651786 L14.4508929,16.7410714 C14.4508929,16.2232143 14.875,16.2901786 15.0223214,16.3660714 L15.1294643,16.0267857 L15.1294643,16.0267857 Z M15.6026786,16.84375 C15.6026786,16.3348214 16.1205357,16.1696429 16.5267857,16.46875 L16.6964286,16.1785714 C16.1785714,15.7723214 15.2366071,15.9955357 15.2366071,16.8482143 C15.2366071,17.7321429 16.2366071,17.9107143 16.6964286,17.5178571 L16.5267857,17.2276786 C16.1160714,17.5178571 15.6026786,17.34375 15.6026786,16.84375 Z M18.5803571,16.0267857 L18.2142857,16.0267857 L18.2142857,16.2232143 C17.84375,15.7321429 16.8794643,16.0089286 16.8794643,16.84375 C16.8794643,17.7008929 17.8794643,17.9464286 18.2142857,17.4642857 L18.2142857,17.6696429 L18.5803571,17.6696429 L18.5803571,16.0267857 L18.5803571,16.0267857 Z M20.0848214,16.0267857 C19.9776786,15.9732143 19.59375,15.8973214 19.40625,16.2232143 L19.40625,16.0267857 L19.0535714,16.0267857 L19.0535714,17.6651786 L19.40625,17.6651786 L19.40625,16.7410714 C19.40625,16.25 19.8080357,16.28125 19.9776786,16.3660714 L20.0848214,16.0267857 L20.0848214,16.0267857 Z M21.8839286,15.3616071 L21.53125,15.3616071 L21.53125,16.2232143 C21.1651786,15.7366071 20.1964286,15.9955357 20.1964286,16.84375 C20.1964286,17.7098214 21.2008929,17.9419643 21.53125,17.4642857 L21.53125,17.6696429 L21.8839286,17.6696429 L21.8839286,15.3616071 Z M22.2232143,12.0089286 L22.2232143,12.2142857 L22.2589286,12.2142857 L22.2589286,12.0089286 L22.34375,12.0089286 L22.34375,11.9732143 L22.1383929,11.9732143 L22.1383929,12.0089286 L22.2232143,12.0089286 L22.2232143,12.0089286 Z M22.5178571,17.5357143 C22.5178571,17.5133929 22.5178571,17.4866071 22.5044643,17.4642857 C22.4910714,17.4508929 22.4821429,17.4285714 22.46875,17.4151786 C22.4553571,17.4017857 22.4330357,17.3928571 22.4196429,17.3794643 C22.3973214,17.3794643 22.3705357,17.3660714 22.3482143,17.3660714 C22.3348214,17.3660714 22.3125,17.3794643 22.2857143,17.3794643 C22.2633929,17.3928571 22.25,17.4017857 22.2366071,17.4151786 C22.2142857,17.4285714 22.2008929,17.4508929 22.2008929,17.4642857 C22.1875,17.4866071 22.1875,17.5133929 22.1875,17.5357143 C22.1875,17.5491071 22.1875,17.5714286 22.2008929,17.5982143 C22.2008929,17.6116071 22.2142857,17.6339286 22.2366071,17.6473214 C22.25,17.6607143 22.2589286,17.6696429 22.2857143,17.6830357 C22.3080357,17.6964286 22.3348214,17.6964286 22.3482143,17.6964286 C22.3705357,17.6964286 22.3973214,17.6964286 22.4196429,17.6830357 C22.4330357,17.6696429 22.4553571,17.6607143 22.46875,17.6473214 C22.4821429,17.6339286 22.4910714,17.6116071 22.5044643,17.5982143 C22.5178571,17.5714286 22.5178571,17.5491071 22.5178571,17.5357143 Z M22.6607143,11.96875 L22.5982143,11.96875 L22.5267857,12.125 L22.4553571,11.96875 L22.3928571,11.96875 L22.3928571,12.2098214 L22.4285714,12.2098214 L22.4285714,12.0267857 L22.5,12.1830357 L22.5491071,12.1830357 L22.6116071,12.0267857 L22.6116071,12.2098214 L22.6607143,12.2098214 L22.6607143,11.96875 L22.6607143,11.96875 Z M22.8571429,8.375 C22.8571429,4.97321429 20.0848214,2.20089286 16.6741071,2.20089286 C15.4598214,2.20089286 14.2678571,2.56696429 13.2589286,3.23214286 C16.4776786,5.87946429 16.5267857,10.8883929 13.2589286,13.5223214 C14.2678571,14.1919643 15.46875,14.5535768 16.6741071,14.5535768 C20.0848214,14.5580357 22.8571429,11.7901786 22.8571429,8.375 Z"></path>
            </g>
        </g>
    </g>
</svg>