<?xml version="1.0" encoding="UTF-8"?>
<svg width="26px" height="20px" viewBox="0 0 26 20" version="1.1" xmlns="http://www.w3.org/2000/svg" xmlns:xlink="http://www.w3.org/1999/xlink">
    <title>Payment - AMEX@2x</title>
    <g id="UI" stroke="none" strokeWidth="1" fill="none" fillRule="evenodd">
        <g id="Desktop---Checkout-(Payment)" transform="translate(-541.000000, -356.000000)" fill="#525252" fillRule="nonzero">
            <g id="Payment---AMEX" transform="translate(541.000000, 356.000000)">
                <path d="M14.5223214,6.0625 C14.5223214,5.33035714 13.8928571,5.24107143 13.2991071,5.24107143 L11.5535714,5.22767857 L11.5535714,8.32142857 L12.2857143,8.32142857 L12.2857143,7.20089286 L13.0892857,7.20089286 C13.9107143,7.20089286 13.7366071,7.66071429 13.75,8.32142857 L14.4910714,8.32142857 L14.4910714,7.71875 C14.4910714,7.30803571 14.4241071,7.04464286 14,6.89732143 C14.3303571,6.76339286 14.5267857,6.41964286 14.5223214,6.0625 L14.5223214,6.0625 Z M13.2098214,6.56696429 L12.2857143,6.56696429 L12.2857143,5.88392857 L13.2232143,5.88392857 C13.4508929,5.88392857 13.7008929,5.92857143 13.7008929,6.21428571 C13.7008929,6.50892857 13.4642857,6.56696429 13.2098214,6.56696429 L13.2098214,6.56696429 Z M12.4642857,10.5625 L10.1116071,10.5625 L9.17410714,11.5803571 L8.25892857,10.5625 L5.29017857,10.5625 L5.28571429,13.65625 L8.20535714,13.65625 L9.15625,12.6294643 L10.0669643,13.65625 L11.5044643,13.65625 L11.5089286,12.6160714 C12.3526786,12.6160714 13.7098214,12.8214286 13.7098214,11.5758929 C13.7098214,10.8035714 13.1607143,10.5625 12.4642857,10.5625 L12.4642857,10.5625 Z M7.83035714,13.0044643 L6.01785714,13.0044643 L6.01785714,12.3883929 L7.63839286,12.3883929 L7.63839286,11.7589286 L6.01785714,11.7589286 L6.01785714,11.2008929 L7.87946429,11.2008929 L8.67857143,12.1026786 L7.83035714,13.0044643 Z M10.7678571,13.3705357 L9.63839286,12.1160714 L10.7678571,10.8928571 L10.7678571,13.3705357 Z M12.4553571,11.9866071 L11.5089286,11.9866071 L11.5089286,11.2008929 L12.46875,11.2008929 C12.71875,11.2008929 12.9241071,11.3035714 12.9241071,11.5758929 C12.9241071,11.8616071 12.71875,11.9866071 12.4553571,11.9866071 L12.4553571,11.9866071 Z M11.0446429,5.88392857 L11.0446429,5.23214286 L8.56696429,5.23214286 L8.56696429,8.32589286 L11.0446429,8.32589286 L11.0446429,7.6875 L9.30803571,7.6875 L9.30803571,7.07142857 L10.9955357,7.07142857 L10.9955357,6.44196429 L9.30803571,6.44196429 L9.30803571,5.88392857 L11.0446429,5.88392857 Z M25.7564286,10.0008929 L25.7364286,10.0008929 L25.7564286,10.0008929 Z M17.0357143,11.3973214 C17.0357143,10.6651786 16.40625,10.5625 15.8258929,10.5625 L14.0669643,10.5625 L14.0625,13.65625 L14.8035714,13.65625 L14.8080357,12.5267857 L15.59375,12.5267857 C16.0848214,12.5267857 16.2544643,12.6160714 16.2544643,13.1428571 L16.25,13.65625 L16.9910714,13.65625 L16.9955357,13.0401786 C16.9955357,12.6428571 16.9151786,12.3660714 16.5044643,12.21875 C16.8482143,12.0803571 17.03125,11.7366071 17.0357143,11.3973214 L17.0357143,11.3973214 Z M15.7321429,11.8973214 L14.8080357,11.8973214 L14.8080357,11.2008929 L15.7455357,11.2008929 C15.9732143,11.2008929 16.2232143,11.2455357 16.2232143,11.53125 C16.2232143,11.8392857 15.9821429,11.8973214 15.7321429,11.8973214 L15.7321429,11.8973214 Z M8.01785714,8.32589286 L8.01785714,5.23214286 L6.78571429,5.23214286 L5.90625,7.33035714 L4.9375,5.23214286 L3.72767857,5.23214286 L3.72767857,8.16517857 L2.47321429,5.23214286 L1.37946429,5.23214286 L0.0535714286,8.32589286 L0.852678571,8.32589286 L1.13839286,7.64285714 L2.67857143,7.64285714 L2.96428571,8.32589286 L4.47321429,8.32589286 L4.47321429,5.90625 L5.54464286,8.32589286 L6.19642857,8.32589286 L7.26785714,5.90625 L7.26785714,8.32589286 L8.01785714,8.32589286 Z M1.40178571,7 L1.90178571,5.76785714 L2.41517857,7 L1.40178571,7 Z M22.7142857,14.09375 L22.7142857,13.8928571 C22.2321429,14.1428571 22.5401786,14.09375 15.71875,14.09375 C15.71875,12.96875 15.7232143,13.0267857 15.71875,12.96875 C15.6428571,12.9642857 15.5758929,12.9642857 15.2991071,12.9642857 C15.2991071,13.7633929 15.2946429,13.2678571 15.2946429,14.09375 L13.5267857,14.09375 C13.5267857,13.5535714 13.53125,13.4107143 13.53125,12.7901786 C13.0848214,13.0580357 12.5133929,13.0758929 12,13.0669643 C12,13.7232143 11.9955357,13.4375 11.9955357,14.09375 L9.8125,14.09375 C9.58482143,13.8392857 9.69196429,13.9553571 9.125,13.3169643 C8.98214286,13.4732143 8.55357143,13.9375 8.40625,14.09375 L4.74553571,14.09375 L4.74553571,9.97321429 L8.45535714,9.97321429 C8.67857143,10.2232143 8.58035714,10.1116071 9.14732143,10.7410714 C9.29017857,10.5848214 9.69196429,10.1428571 9.84821429,9.97321429 L12.4375,9.97321429 C12.875,9.97321429 13.2410714,10.0580357 13.5223214,10.2232143 L13.5223214,9.97321429 C15.9464286,9.97321429 16.3928571,9.91071429 16.9017857,10.2008929 L16.9017857,9.97321429 L20.3928571,9.97321429 L20.3928571,10.2053571 C20.9017857,9.89732143 21.2678571,9.97321429 23.2901786,9.97321429 L23.2901786,10.1964286 C23.75,9.93303571 24.03125,9.96428571 25.7142857,9.97321429 L25.7142857,2.14285714 C25.7142857,0.959821429 24.7544643,0 23.5714286,0 L2.14285714,0 C0.959821429,0 0,0.959821429 0,2.14285714 L0,7.04464286 C0.419642857,6.06696429 0.879464286,4.99107143 1.03125,4.63839286 L2.80357143,4.63839286 C2.99553571,5.08928571 2.875,4.80357143 3.20535714,5.58035714 L3.20535714,4.63839286 L5.25892857,4.63839286 C5.38839286,4.91517857 5.75446429,5.70982143 5.87946429,5.97767857 C6.13839286,5.37053571 6.33035714,4.91071429 6.44196429,4.63839286 L11.0401786,4.63839286 C11.0401786,4.63392857 11.5535714,4.63839286 11.5580357,4.63839286 C13.5089286,4.64732143 13.9508929,4.60267857 14.4330357,4.875 L14.4330357,4.63839286 L16.2142857,4.63839286 L16.2142857,5.05357143 C16.5535714,4.78125 17.0133929,4.63839286 17.5848214,4.63839286 L18.8169643,4.63839286 C18.8169643,4.66071429 18.9017857,4.65178571 18.9196429,4.65178571 L20.3660714,4.65178571 C20.5535714,5.08928571 20.4821429,4.91964286 20.7589286,5.57142857 L20.7589286,4.65178571 L22.6919643,4.65178571 C22.9107143,5.00892857 22.6473214,4.57142857 23.1919643,5.47321429 L23.1919643,4.65178571 L24.9732143,4.65178571 L24.9732143,8.75892857 L23.1160714,8.75892857 C22.875,8.35714286 23.0535714,8.66071429 22.5267857,7.78125 L22.5267857,8.75892857 L20.1696429,8.75892857 C19.8839286,8.09821429 20.1651786,8.74553571 19.875,8.07589286 L19.0267857,8.07589286 C18.8392857,8.52232143 18.9285714,8.30803571 18.7410714,8.75892857 L17.5446429,8.75892857 C16.9955357,8.75892857 16.5491071,8.625 16.21875,8.36160714 L16.21875,8.75892857 L13.25,8.75892857 C13.2366071,8.13839286 13.2455357,7.65178571 13.2455357,7.65178571 C13.1651786,7.63839286 13.09375,7.64285714 12.8080357,7.64285714 L12.8080357,8.76339286 L6.75892857,8.76339286 L6.75892857,8.25446429 C6.64732143,8.50446429 6.63839286,8.51785714 6.53125,8.76339286 L5.21428571,8.76339286 C5.03571429,8.36607143 5.08482143,8.47767857 4.98660714,8.25446429 L4.98660714,8.76339286 L2.625,8.76339286 C2.4375,8.3125 2.52678571,8.52678571 2.33928571,8.08035714 L1.48214286,8.08035714 C1.29464286,8.52678571 1.38392857,8.3125 1.19642857,8.76339286 L0.00892857143,8.76339286 L0.00892857143,17.8571429 C0.00892857143,19.0401786 0.96875,20 2.15178571,20 L23.5848214,20 C24.7678571,20 25.7276786,19.0401786 25.7276786,17.8571429 L25.7276786,13.8214286 C25.1607143,14.1919643 24.2678571,14.09375 22.7142857,14.09375 Z M24.3348214,11.2142857 L25.6785714,11.2142857 L25.6785714,10.5625 L24.2098214,10.5625 C23.6383929,10.5625 23.1473214,10.8571429 23.1473214,11.4866071 C23.1473214,12.9598214 25.0535714,12.0580357 25.0535714,12.7098214 C25.0535714,12.9375 24.8616071,12.9955357 24.6785714,12.9955357 L23.25,12.9955357 L23.2455357,13.65625 L24.6741071,13.65625 C25.0491071,13.65625 25.4598214,13.5758929 25.6785714,13.2589286 L25.6785714,12.1071429 C25.2098214,11.4910714 23.9241071,12.0491071 23.9241071,11.5044643 C23.9241071,11.2455357 24.1294643,11.2142857 24.3348214,11.2142857 L24.3348214,11.2142857 Z M21.7901786,12.9910714 L20.3526786,12.9910714 L20.3482143,13.6517857 L21.7857143,13.6517857 C22.4464286,13.6517857 22.9553571,13.4017857 22.9553571,12.6696429 C22.9553571,11.1875 21.0401786,12.1696429 21.0401786,11.4955357 C21.0401786,11.2455357 21.2589286,11.2098214 21.4508929,11.2098214 L22.8080357,11.2098214 L22.8080357,10.5580357 L21.3258929,10.5580357 C20.7544643,10.5580357 20.2767857,10.8526786 20.2767857,11.4821429 C20.2767857,12.9553571 22.1830357,12.0401786 22.1830357,12.7053571 C22.1785714,12.9464286 21.9732143,12.9910714 21.7901786,12.9910714 L21.7901786,12.9910714 Z M19.90625,11.2008929 L19.90625,10.5625 L17.4419643,10.5625 L17.4375,13.65625 L19.9017857,13.65625 L19.90625,13.0178571 L18.1830357,13.0044643 L18.1830357,12.3883929 L19.875,12.3883929 L19.875,11.7589286 L18.1875,11.7589286 L18.1875,11.2008929 L19.90625,11.2008929 Z M17.3928571,6.375 C17.3794643,6.38392857 17.3303571,6.47321429 17.3303571,6.71428571 C17.3303571,6.98214286 17.3705357,7.05803571 17.3794643,7.06696429 C17.3883929,7.07142857 17.4285714,7.08928571 17.53125,7.08928571 L17.8571429,6.33482143 C17.8080357,6.33482143 17.7633929,6.33035714 17.71875,6.33035714 C17.46875,6.33035714 17.40625,6.36160714 17.3928571,6.375 Z M18.3340179,5.93392857 L18.3240179,5.93392857 L18.3340179,5.93392857 Z M17.5803571,5.22767857 C16.53125,5.22767857 16.0625,5.76339286 16.0625,6.80357143 C16.0625,7.79464286 16.5178571,8.32142857 17.5357143,8.32142857 L18.3928571,8.32142857 L18.6785714,7.63839286 L20.2098214,7.63839286 L20.5044643,8.32142857 L22.0089286,8.32142857 L22.0089286,6.00446429 L23.4017857,8.32142857 L24.4553571,8.32142857 L24.4553571,5.24107143 L23.7008929,5.24107143 L23.7008929,7.38839286 L22.4017857,5.24107143 L21.2723214,5.24107143 L21.2723214,8.16071429 L20.0267857,5.24107143 L18.9196429,5.24107143 L17.8705357,7.67410714 L17.5401786,7.67410714 C16.9464286,7.67410714 16.8214286,7.3125 16.8214286,6.78571429 C16.8214286,5.72321429 17.5223214,5.89285714 18.2991071,5.90625 L18.2991071,5.22767857 L17.5803571,5.22767857 Z M19.4598214,5.76785714 L19.9598214,7 L18.9419643,7 L19.4598214,5.76785714 Z M14.9464286,5.23214286 L14.9464286,8.32589286 L15.7008929,8.32589286 L15.7008929,5.23214286 L14.9464286,5.23214286 Z"></path>
            </g>
        </g>
    </g>
</svg>