<?xml version="1.0" encoding="UTF-8"?>
<svg width="26px" height="20px" viewBox="0 0 26 20" version="1.1" xmlns="http://www.w3.org/2000/svg" xmlns:xlink="http://www.w3.org/1999/xlink">
    <title>Payment - Visa@2x</title>
    <g id="UI" stroke="none" strokeWidth="1" fill="none" fillRule="evenodd">
        <g id="Desktop---Checkout-(Payment)" transform="translate(-469.000000, -356.000000)" fill="#525252" fillRule="nonzero">
            <g id="Payment---Visa" transform="translate(469.000000, 356.000000)">
                <path d="M20.9866071,8.89732143 C20.9866071,8.89732143 21.3258929,10.5580357 21.4017857,10.90625 L19.9107143,10.90625 C20.0580357,10.5089286 20.625,8.96428571 20.625,8.96428571 C20.6160714,8.97767857 20.7723214,8.55803571 20.8616071,8.29910714 L20.9866071,8.89732143 Z M25.7142857,2.14285714 L25.7142857,17.8571429 C25.7142857,19.0401786 24.7544643,20 23.5714286,20 L2.14285714,20 C0.959821429,20 0,19.0401786 0,17.8571429 L0,2.14285714 C0,0.959821429 0.959821429,0 2.14285714,0 L23.5714286,0 C24.7544643,0 25.7142857,0.959821429 25.7142857,2.14285714 Z M6.80803571,13.3571429 L9.62946429,6.42857143 L7.73214286,6.42857143 L5.97767857,11.1607143 L5.78571429,10.2008929 L5.16071429,7.01339286 C5.05803571,6.57142857 4.74107143,6.44642857 4.34821429,6.42857143 L1.45982143,6.42857143 L1.42857143,6.56696429 C2.13392857,6.74553571 2.76339286,7.00446429 3.3125,7.33035714 L4.91071429,13.3571429 L6.80803571,13.3571429 Z M11.0223214,13.3660714 L12.1473214,6.42857143 L10.3526786,6.42857143 L9.23214286,13.3660714 L11.0223214,13.3660714 L11.0223214,13.3660714 Z M17.2678571,11.0982143 C17.2767857,10.3080357 16.7946429,9.70535714 15.7633929,9.20982143 C15.1339286,8.89285714 14.75,8.67857143 14.75,8.35267857 C14.7589286,8.05803571 15.0758929,7.75446429 15.78125,7.75446429 C16.3660714,7.74107143 16.7946429,7.87946429 17.1160714,8.01785714 L17.2767857,8.09375 L17.5223214,6.59375 C17.1696429,6.45535714 16.6071429,6.29910714 15.9151786,6.29910714 C14.1428571,6.29910714 12.8973214,7.24553571 12.8883929,8.59375 C12.875,9.58928571 13.78125,10.1428571 14.4598214,10.4776786 C15.1517857,10.8169643 15.3883929,11.0401786 15.3883929,11.3392857 C15.3794643,11.8035714 14.8258929,12.0178571 14.3125,12.0178571 C13.5982143,12.0178571 13.2142857,11.90625 12.6294643,11.6473214 L12.3928571,11.5357143 L12.1428571,13.09375 C12.5625,13.2857143 13.3392857,13.4553571 14.1428571,13.4643017 C16.0267857,13.46875 17.2544643,12.5357143 17.2678571,11.0982143 Z M23.5714286,13.3660714 L22.125,6.42857143 L20.7366071,6.42857143 C20.3080357,6.42857143 19.9821429,6.55357143 19.7991071,7.00446429 L17.1339286,13.3660714 L19.0178571,13.3660714 C19.0178571,13.3660714 19.3258929,12.5089286 19.3928571,12.3258929 L21.6964286,12.3258929 C21.75,12.5714286 21.9107143,13.3660714 21.9107143,13.3660714 L23.5714286,13.3660714 Z"></path>
            </g>
        </g>
    </g>
</svg>