<svg xmlns="http://www.w3.org/2000/svg" width="31" height="24" viewBox="0 0 31 24"><path fill="#C4C4C4" fillRule="evenodd" d="M28.2857143,0 C29.7053571,0 30.8571429,1.15178571 30.8571429,2.57142857 L30.8571429,21.4285714 C30.8571429,22.8482143 29.7053571,24 28.2857143,24 L2.57142857,24 C1.15178571,24 0,22.8482143 0,21.4285714 L0,2.57142857 C0,1.15178571 1.15178571,0 2.57142857,0 L28.2857143,0 Z M23.446249,9.95076254 L22.4828738,9.95076254 L24.4249993,14.404052 L23.324374,16.8 L24.2374992,16.8 L27.2,9.95076254 L26.2366248,9.95076254 L24.8663744,13.3666274 L24.8494994,13.3666274 L23.446249,9.95076254 Z M7.16449488,7.20019042 C5.65922966,7.20592816 4.28752594,8.05930582 3.62524398,9.40206363 C3.05825201,10.5299079 3.05825201,11.8569662 3.62524398,12.9848105 C4.28773063,14.3324207 5.6597977,15.1844359 7.16449488,15.1881737 C8.23212015,15.1881737 9.13512038,14.833177 9.78949555,14.2230149 C10.5394957,13.5297843 10.9673772,12.5039073 10.9673772,11.2835831 C10.9678062,11.0118197 10.945858,10.7404765 10.9017458,10.4722686 L7.16449488,10.4722686 L7.16449488,12.0088491 L9.30574543,12.0088491 C9.21849368,12.503787 8.93230998,12.9421738 8.51299522,13.2232132 C8.15524513,13.4672036 7.69849502,13.6061477 7.16299488,13.6061477 C6.12799462,13.6061477 5.25311939,12.901742 4.93924431,11.9589335 C4.79553131,11.5249178 4.77756718,11.0608788 4.88535193,10.6193573 L4.93924431,10.4316657 C5.25311939,9.48326958 6.12799462,8.77886385 7.16299488,8.77886385 C7.72969094,8.7683776 8.27693499,8.98415443 8.68212027,9.37785085 L9.81762056,8.23724253 C9.102467,7.56228978 8.15091901,7.1903493 7.16449488,7.20019042 Z M20.2152482,9.79654574 C19.372998,9.79654574 18.7399978,10.1072144 18.3214977,10.7225915 L19.1033729,11.2165323 C19.389623,10.7943607 19.7803731,10.5832749 20.2756232,10.5832749 C20.5909434,10.5840372 20.8948283,10.7006689 21.1287484,10.9107062 C21.3593904,11.1096481 21.4919333,11.3981061 21.4921235,11.701533 L21.4921235,11.9067829 C21.1508735,11.7179232 20.7214983,11.618092 20.1931232,11.618092 C19.5766231,11.618092 19.0812479,11.7626237 18.7122478,12.0565296 C18.3432477,12.3504356 18.1564977,12.7385851 18.1564977,13.2321533 C18.1448112,13.6789039 18.3369274,14.1069879 18.6792478,14.3969744 C19.0261229,14.7076431 19.466748,14.8629774 19.9838732,14.8629774 C20.5947483,14.8629774 21.0792484,14.5910492 21.4463735,14.0475654 L21.4838735,14.0475654 L21.4838735,14.7076431 L22.331776,14.7076431 L22.331776,11.7760338 C22.3343738,11.1595391 22.1472487,10.6711859 21.7673736,10.3232669 C21.3874985,9.97385781 20.8699984,9.79654574 20.2152482,9.79654574 Z M16.0152471,7.75298688 L13.6651215,7.75298688 L13.6651215,14.7091331 L14.5512468,14.7091331 L14.5512468,11.8915102 L16.0137471,11.8915102 C16.6137473,11.8915102 17.1199974,11.6918479 17.5328725,11.2981108 L17.6322476,11.1982796 C18.3839573,10.3833626 18.3404331,9.12061526 17.5343725,8.35867895 C17.1322732,7.96086267 16.5837027,7.74160348 16.0152471,7.75298688 Z M20.3314982,12.3407504 C20.8249984,12.3347904 21.2112485,12.4465417 21.4864985,12.6678093 C21.4864985,13.0451562 21.3379985,13.372215 21.0462484,13.6497307 C20.7835534,13.9152313 20.4246354,14.0649817 20.0498732,14.0654456 C19.8004692,14.0695741 19.5574108,13.9872498 19.362498,13.8326304 C19.178049,13.6953294 19.0699673,13.4793609 19.0711137,13.2504061 C19.0711137,12.989653 19.191873,12.773228 19.428873,12.6015035 C19.6658731,12.429779 19.9737482,12.3407504 20.3314982,12.3407504 Z M16.0373721,8.60973906 C16.3545109,8.6086063 16.6592089,8.73221893 16.8848724,8.95356839 C17.362232,9.42578682 17.3745327,10.18963 16.9126224,10.6767735 C16.686641,10.9178824 16.367746,11.0492602 16.0373721,11.0388477 L14.5512468,11.0388477 L14.5512468,8.60973906 L16.0373721,8.60973906 Z"/></svg>