<svg xmlns="http://www.w3.org/2000/svg" width="31" height="24" viewBox="0 0 31 24"><path fill="#C4C4C4" d="M16.1892857,10.0392857 C16.1892857,10.9607143 15.6267857,11.4910714 14.6357143,11.4910714 L13.3339286,11.4910714 L13.3339286,8.5875 L14.6410714,8.5875 C15.6267857,8.5875 16.1892857,9.1125 16.1892857,10.0392857 L16.1892857,10.0392857 Z M18.7339286,13.3928571 C18.7339286,13.8375 19.1196429,14.1267857 19.725,14.1267857 C20.4964286,14.1267857 21.075,13.6392857 21.075,12.9535714 L21.075,12.5410714 L19.8160714,12.6214286 C19.1035714,12.6696429 18.7339286,12.9321429 18.7339286,13.3928571 Z M30.8571429,2.57142857 L30.8571429,21.4285714 C30.8571429,22.8482143 29.7053571,24 28.2857143,24 L2.57142857,24 C1.15178571,24 0,22.8482143 0,21.4285714 L0,2.57142857 C0,1.15178571 1.15178571,0 2.57142857,0 L28.2857143,0 C29.7053571,0 30.8571429,1.15178571 30.8571429,2.57142857 Z M6.84642857,8.90357143 C7.29642857,8.94107143 7.74642857,8.67857143 8.03035714,8.34642857 C8.30892857,8.00357143 8.49107143,7.54285714 8.44285714,7.07678571 C8.04642857,7.09285714 7.55357143,7.33928571 7.26964286,7.68214286 C7.0125,7.97678571 6.79285714,8.45357143 6.84642857,8.90357143 L6.84642857,8.90357143 Z M10.0928571,12.8946429 C10.0821429,12.8839286 9.04285714,12.4875 9.03214286,11.2875 C9.02142857,10.2857143 9.85178571,9.80357143 9.88928571,9.77678571 C9.41785714,9.08035714 8.68928571,9.00535714 8.4375,8.98928571 C7.78392857,8.95178571 7.22678571,9.35892857 6.91607143,9.35892857 C6.6,9.35892857 6.12857143,9.00535714 5.61428571,9.01607143 C4.94464286,9.02678571 4.31785714,9.40714286 3.98035714,10.0125 C3.27857143,11.2232143 3.79821429,13.0125 4.47857143,13.9982143 C4.81071429,14.4857143 5.2125,15.0214286 5.7375,15 C6.23571429,14.9785714 6.43392857,14.6785714 7.03392857,14.6785714 C7.63928571,14.6785714 7.81071429,15 8.33571429,14.9946429 C8.88214286,14.9839286 9.21964286,14.5071429 9.55714286,14.0196429 C9.92678571,13.4625 10.0821429,12.9267857 10.0928571,12.8946429 Z M17.3464286,10.0339286 C17.3464286,8.60892857 16.3553571,7.63392857 14.9410714,7.63392857 L12.1982143,7.63392857 L12.1982143,14.9410714 L13.3339286,14.9410714 L13.3339286,12.4446429 L14.9035714,12.4446429 C16.3392857,12.4446429 17.3464286,11.4589286 17.3464286,10.0339286 L17.3464286,10.0339286 Z M22.1678571,11.3035714 C22.1678571,10.2482143 21.3214286,9.56785714 20.025,9.56785714 C18.8196429,9.56785714 17.9303571,10.2589286 17.8982143,11.2017857 L18.9214286,11.2017857 C19.0071429,10.7517857 19.425,10.4571429 19.9928571,10.4571429 C20.6892857,10.4571429 21.075,10.7785714 21.075,11.3785714 L21.075,11.7803571 L19.6607143,11.8660714 C18.3428571,11.9464286 17.6303571,12.4875 17.6303571,13.425 C17.6303571,14.3732143 18.3642857,15 19.4196429,15 C20.1321429,15 20.7910714,14.6410714 21.0910714,14.0678571 L21.1125,14.0678571 L21.1125,14.9464286 L22.1625,14.9464286 L22.1625,11.3035714 L22.1678571,11.3035714 Z M27.6428571,9.6375 L26.4910714,9.6375 L25.1571429,13.9553571 L25.1357143,13.9553571 L23.8017857,9.6375 L22.6071429,9.6375 L24.5303571,14.9571429 L24.4285714,15.2785714 C24.2571429,15.825 23.9732143,16.0392857 23.4696429,16.0392857 C23.3785714,16.0392857 23.2071429,16.0285714 23.1375,16.0232143 L23.1375,16.9017857 C23.2017857,16.9232143 23.4857143,16.9285714 23.5714286,16.9285714 C24.6803571,16.9285714 25.2,16.5053571 25.6553571,15.225 L27.6428571,9.6375 Z"/></svg>