<svg xmlns="http://www.w3.org/2000/svg" width="39" height="24" viewBox="0 0 39 24"><path fill="#C4C4C4" fillRule="evenodd" d="M35.2,0 C36.9666667,0 38.4,1.15178571 38.4,2.57142857 L38.4,21.4285714 C38.4,22.8482143 36.9666667,24 35.2,24 L3.2,24 C1.43333333,24 0,22.8482143 0,21.4285714 L0,2.57142857 C0,1.15178571 1.43333333,0 3.2,0 L35.2,0 Z M33.4504798,8.93525901 C32.7719726,8.54981168 31.9238385,9.03379442 31.9238385,9.81048528 L31.9238385,9.94089979 C31.9238385,10.0133523 31.9618583,10.0800086 32.0261995,10.1147858 L32.5029094,10.3843091 C32.6345164,10.4596597 32.798294,10.3640224 32.798294,10.2133212 L32.798294,9.90322449 C32.798294,9.74962517 32.9649962,9.65398787 33.0995278,9.72933847 L34.0353998,10.2625889 L34.9683473,10.7929413 C35.1028789,10.8682919 35.1028789,11.0624646 34.9683473,11.1378152 L34.0353998,11.6681675 L33.0995278,12.201418 C32.9649962,12.2767686 32.798294,12.1811313 32.798294,12.027532 L32.798294,11.8739326 C32.798294,11.0972418 31.9501599,10.6103609 31.2716527,10.9987064 L30.2451181,11.5812245 L29.2332064,12.1550484 C28.5517746,12.5433938 28.5517746,13.5200536 29.2332064,13.908399 L30.2451181,14.4822228 L31.2716527,15.064741 C31.9501599,15.4501883 32.798294,14.9662056 32.798294,14.1895147 L32.798294,14.0591002 C32.798294,13.9866477 32.7602742,13.9199914 32.695933,13.8852142 L32.2192232,13.6156909 C32.0876161,13.5403403 31.9238385,13.6359776 31.9238385,13.7866788 L31.9238385,14.0967755 C31.9238385,14.2503748 31.7571363,14.3460121 31.6226047,14.2706615 L30.6867327,13.7374111 L29.7537852,13.2070587 C29.6192536,13.1317081 29.6192536,12.9375354 29.7537852,12.8621848 L30.6867327,12.3318325 L31.6226047,11.798582 C31.7571363,11.7232314 31.9238385,11.8188687 31.9238385,11.972468 L31.9238385,12.1260674 C31.9238385,12.9027582 32.7719726,13.3896391 33.4504798,13.0012936 L34.4770145,12.4187755 L35.4889261,11.8449516 C36.170358,11.4537081 36.170358,10.4799464 35.4889261,10.091601 L34.4770145,9.51777715 Z M25.9985986,10.2828756 L24.9896116,10.2828756 L26.3846458,13.3200847 L25.498492,15.1313973 L26.4811577,15.1313973 L28.8500838,10.2828756 L27.8703427,10.2828756 L26.8935263,12.317342 L25.9985986,10.2828756 Z M19.0263519,10.2191174 C18.5701142,10.2191174 18.1869916,10.4132901 17.9296268,10.7291831 L17.9296268,10.2828756 L17.0756436,10.2828756 L17.0756436,15.1284992 L17.9559482,15.1284992 L17.9559482,13.3171866 C18.2074638,13.6069966 18.5671896,13.7779845 19.0058797,13.7779845 C19.9505255,13.7779845 20.7021478,13.0070898 20.7021478,11.9956528 C20.7021478,10.9842159 19.9651485,10.2191174 19.0263519,10.2191174 Z M4.09626809,10.2220155 C3.15162224,10.2220155 2.4,10.9929102 2.4,12.0043472 C2.4,13.0244784 3.12237624,13.7808826 4.07579589,13.7808826 C4.53203351,13.7808826 4.91515613,13.589608 5.17252094,13.2795113 L5.17252094,13.7258187 L6.02650419,13.7258187 L6.02650419,10.2828756 L5.17252094,10.2828756 L5.17252094,10.7175906 C4.91515613,10.4161882 4.54080731,10.2220155 4.09626809,10.2220155 Z M12.4723229,10.2191174 C11.4428637,10.2191174 10.66492,10.9697254 10.66492,12.0101434 C10.66492,13.0505613 11.4019193,13.7808826 12.4518507,13.7808826 C13.320457,13.7808826 13.9814166,13.3142885 14.1890632,12.5839672 L13.291211,12.5839672 C13.1245088,12.8592867 12.8408225,13.0302746 12.4723229,13.0302746 C12.0043869,13.0302746 11.6358873,12.7404646 11.5744707,12.230399 L14.2387814,12.230399 C14.2534044,12.1608446 14.2592536,12.085494 14.2592536,12.0101434 C14.2592536,10.9755216 13.5076314,10.2191174 12.4723229,10.2191174 Z M22.7142727,10.2220155 C21.7696268,10.2220155 21.0180046,10.9929102 21.0180046,12.0043472 C21.0180046,13.0244784 21.7403808,13.7808826 22.6938005,13.7808826 C23.1500381,13.7808826 23.5331607,13.589608 23.7905255,13.2795113 L23.7905255,13.7258187 L24.6445088,13.7258187 L24.6445088,10.2828756 L23.7905255,10.2828756 L23.7905255,10.7175906 C23.5331607,10.4161882 23.1588119,10.2220155 22.7142727,10.2220155 Z M8.40420411,8.8743989 L7.98306169,8.8743989 C7.26068545,8.8743989 6.91850724,9.10914502 6.91850724,9.82497578 L6.91850724,10.2857737 L6.43302361,10.2857737 L6.43302361,11.0334836 L6.91850724,11.0334836 L6.91850724,13.7258187 L7.79296268,13.7258187 L7.79296268,11.0334836 L8.92185834,11.0334836 L8.92185834,12.7201779 C8.92185834,13.4215182 9.19384615,13.7258187 9.90159939,13.7258187 L10.3519878,13.7258187 L10.3519878,12.9607202 L10.1794364,12.9607202 C9.88112719,12.9607202 9.79631379,12.8505924 9.79631379,12.5607824 L9.79631379,11.0334836 L10.3461386,11.0334836 L10.3461386,10.2828756 L9.79631379,10.2828756 L9.79631379,9.44242655 L8.92185834,9.44242655 L8.92185834,10.2828756 L7.79296268,10.2828756 L7.79296268,9.94089979 C7.79296268,9.65108977 7.90409749,9.54096196 8.2111805,9.54096196 L8.40420411,9.54096196 L8.40420411,8.8743989 Z M16.2860015,10.2191174 C15.7507997,10.2191174 15.5343793,10.6190552 15.5343793,10.6190552 L15.5314547,10.2828756 L14.6774714,10.2828756 L14.6774714,13.7229206 L15.5607007,13.7229206 L15.5607007,11.6855561 C15.5607007,11.3261917 15.7478751,11.0595665 16.0432597,11.0189931 C16.3386443,10.9784197 16.6603503,11.1754905 16.6603503,11.1754905 L16.6603503,10.2973661 C16.6603503,10.2973661 16.5141203,10.2191174 16.2860015,10.2191174 Z M4.21910129,11.0189931 C4.73968012,11.0189931 5.16374714,11.4247271 5.16374714,12.0043472 C5.16374714,12.5839672 4.73968012,12.9897012 4.21910129,12.9897012 C3.69852247,12.9897012 3.27445545,12.5694767 3.27445545,12.0043472 C3.27445545,11.4334214 3.69852247,11.0189931 4.21910129,11.0189931 Z M18.8830465,11.0189931 C19.4036253,11.0189931 19.8276923,11.4479119 19.8276923,12.0043472 C19.8276923,12.5636805 19.4036253,12.9897012 18.8830465,12.9897012 C18.3624676,12.9897012 17.9384006,12.5694767 17.9384006,12.0043472 C17.9384006,11.4334214 18.3624676,11.0189931 18.8830465,11.0189931 Z M22.8371059,11.0189931 C23.3576847,11.0189931 23.7817517,11.4247271 23.7817517,12.0043472 C23.7817517,12.5839672 23.3576847,12.9897012 22.8371059,12.9897012 C22.316527,12.9897012 21.89246,12.5694767 21.89246,12.0043472 C21.89246,11.4334214 22.316527,11.0189931 22.8371059,11.0189931 Z M12.4576999,10.9784197 C12.8905407,10.9784197 13.2590404,11.247943 13.320457,11.6942504 L11.5832445,11.6942504 C11.6709825,11.2392487 12.0277837,10.9784197 12.4576999,10.9784197 Z"/></svg>