<svg xmlns="http://www.w3.org/2000/svg" width="31" height="24" viewBox="0 0 31 24"><path fill="#C4C4C4" d="M25.1839286,10.6767857 C25.1839286,10.6767857 25.5910714,12.6696429 25.6821429,13.0875 L23.8928571,13.0875 C24.0696429,12.6107143 24.75,10.7571429 24.75,10.7571429 C24.7392857,10.7732143 24.9267857,10.2696429 25.0339286,9.95892857 L25.1839286,10.6767857 Z M30.8571429,2.57142857 L30.8571429,21.4285714 C30.8571429,22.8482143 29.7053571,24 28.2857143,24 L2.57142857,24 C1.15178571,24 0,22.8482143 0,21.4285714 L0,2.57142857 C0,1.15178571 1.15178571,0 2.57142857,0 L28.2857143,0 C29.7053571,0 30.8571429,1.15178571 30.8571429,2.57142857 Z M8.16964286,16.0285714 L11.5553571,7.71428571 L9.27857143,7.71428571 L7.17321429,13.3928571 L6.94285714,12.2410714 L6.19285714,8.41607143 C6.06964286,7.88571429 5.68928571,7.73571429 5.21785714,7.71428571 L1.75178571,7.71428571 L1.71428571,7.88035714 C2.56071429,8.09464286 3.31607143,8.40535714 3.975,8.79642857 L5.89285714,16.0285714 L8.16964286,16.0285714 Z M13.2267857,16.0392857 L14.5767857,7.71428571 L12.4232143,7.71428571 L11.0785714,16.0392857 L13.2267857,16.0392857 L13.2267857,16.0392857 Z M20.7214286,13.3178571 C20.7321429,12.3696429 20.1535714,11.6464286 18.9160714,11.0517857 C18.1607143,10.6714286 17.7,10.4142857 17.7,10.0232143 C17.7107143,9.66964286 18.0910714,9.30535714 18.9375,9.30535714 C19.6392857,9.28928571 20.1535714,9.45535714 20.5392857,9.62142857 L20.7321429,9.7125 L21.0267857,7.9125 C20.6035714,7.74642857 19.9285714,7.55892857 19.0982143,7.55892857 C16.9714286,7.55892857 15.4767857,8.69464286 15.4660714,10.3125 C15.45,11.5071429 16.5375,12.1714286 17.3517857,12.5732143 C18.1821429,12.9803571 18.4660714,13.2482143 18.4660714,13.6071429 C18.4553571,14.1642857 17.7910714,14.4214286 17.175,14.4214286 C16.3178571,14.4214286 15.8571429,14.2875 15.1553571,13.9767857 L14.8714286,13.8428571 L14.5714286,15.7125 C15.075,15.9428571 16.0071429,16.1464286 16.9714286,16.157162 C19.2321429,16.1625 20.7053571,15.0428571 20.7214286,13.3178571 Z M28.2857143,16.0392857 L26.55,7.71428571 L24.8839286,7.71428571 C24.3696429,7.71428571 23.9785714,7.86428571 23.7589286,8.40535714 L20.5607143,16.0392857 L22.8214286,16.0392857 C22.8214286,16.0392857 23.1910714,15.0107143 23.2714286,14.7910714 L26.0357143,14.7910714 C26.1,15.0857143 26.2928571,16.0392857 26.2928571,16.0392857 L28.2857143,16.0392857 Z"/></svg>