<svg xmlns="http://www.w3.org/2000/svg" width="31" height="24" viewBox="0 0 31 24"><path fill="#C4C4C4" d="M17.4267857,7.275 C17.4267857,6.39642857 16.6714286,6.28928571 15.9589286,6.28928571 L13.8642857,6.27321429 L13.8642857,9.98571429 L14.7428571,9.98571429 L14.7428571,8.64107143 L15.7071429,8.64107143 C16.6928571,8.64107143 16.4839286,9.19285714 16.5,9.98571429 L17.3892857,9.98571429 L17.3892857,9.2625 C17.3892857,8.76964286 17.3089286,8.45357143 16.8,8.27678571 C17.1964286,8.11607143 17.4321429,7.70357143 17.4267857,7.275 L17.4267857,7.275 Z M15.8517857,7.88035714 L14.7428571,7.88035714 L14.7428571,7.06071429 L15.8678571,7.06071429 C16.1410714,7.06071429 16.4410714,7.11428571 16.4410714,7.45714286 C16.4410714,7.81071429 16.1571429,7.88035714 15.8517857,7.88035714 L15.8517857,7.88035714 Z M14.9571429,12.675 L12.1339286,12.675 L11.0089286,13.8964286 L9.91071429,12.675 L6.34821429,12.675 L6.34285714,16.3875 L9.84642857,16.3875 L10.9875,15.1553571 L12.0803571,16.3875 L13.8053571,16.3875 L13.8107143,15.1392857 C14.8232143,15.1392857 16.4517857,15.3857143 16.4517857,13.8910714 C16.4517857,12.9642857 15.7928571,12.675 14.9571429,12.675 L14.9571429,12.675 Z M9.39642857,15.6053571 L7.22142857,15.6053571 L7.22142857,14.8660714 L9.16607143,14.8660714 L9.16607143,14.1107143 L7.22142857,14.1107143 L7.22142857,13.4410714 L9.45535714,13.4410714 L10.4142857,14.5232143 L9.39642857,15.6053571 Z M12.9214286,16.0446429 L11.5660714,14.5392857 L12.9214286,13.0714286 L12.9214286,16.0446429 Z M14.9464286,14.3839286 L13.8107143,14.3839286 L13.8107143,13.4410714 L14.9625,13.4410714 C15.2625,13.4410714 15.5089286,13.5642857 15.5089286,13.8910714 C15.5089286,14.2339286 15.2625,14.3839286 14.9464286,14.3839286 L14.9464286,14.3839286 Z M13.2535714,7.06071429 L13.2535714,6.27857143 L10.2803571,6.27857143 L10.2803571,9.99107143 L13.2535714,9.99107143 L13.2535714,9.225 L11.1696429,9.225 L11.1696429,8.48571429 L13.1946429,8.48571429 L13.1946429,7.73035714 L11.1696429,7.73035714 L11.1696429,7.06071429 L13.2535714,7.06071429 Z M30.8957143,11.9910714 L30.8757143,11.9910714 L30.8957143,11.9910714 Z M20.4428571,13.6767857 C20.4428571,12.7982143 19.6875,12.675 18.9910714,12.675 L16.8803571,12.675 L16.875,16.3875 L17.7642857,16.3875 L17.7696429,15.0321429 L18.7125,15.0321429 C19.3017857,15.0321429 19.5053571,15.1392857 19.5053571,15.7714286 L19.5,16.3875 L20.3892857,16.3875 L20.3946429,15.6482143 C20.3946429,15.1714286 20.2982143,14.8392857 19.8053571,14.6625 C20.2178571,14.4964286 20.4375,14.0839286 20.4428571,13.6767857 L20.4428571,13.6767857 Z M18.8785714,14.2767857 L17.7696429,14.2767857 L17.7696429,13.4410714 L18.8946429,13.4410714 C19.1678571,13.4410714 19.4678571,13.4946429 19.4678571,13.8375 C19.4678571,14.2071429 19.1785714,14.2767857 18.8785714,14.2767857 L18.8785714,14.2767857 Z M9.62142857,9.99107143 L9.62142857,6.27857143 L8.14285714,6.27857143 L7.0875,8.79642857 L5.925,6.27857143 L4.47321429,6.27857143 L4.47321429,9.79821429 L2.96785714,6.27857143 L1.65535714,6.27857143 L0.0642857143,9.99107143 L1.02321429,9.99107143 L1.36607143,9.17142857 L3.21428571,9.17142857 L3.55714286,9.99107143 L5.36785714,9.99107143 L5.36785714,7.0875 L6.65357143,9.99107143 L7.43571429,9.99107143 L8.72142857,7.0875 L8.72142857,9.99107143 L9.62142857,9.99107143 Z M1.68214286,8.4 L2.28214286,6.92142857 L2.89821429,8.4 L1.68214286,8.4 Z M27.2571429,16.9125 L27.2571429,16.6714286 C26.6785714,16.9714286 27.0482143,16.9125 18.8625,16.9125 C18.8625,15.5625 18.8678571,15.6321429 18.8625,15.5625 C18.7714286,15.5571429 18.6910714,15.5571429 18.3589286,15.5571429 C18.3589286,16.5160714 18.3535714,15.9214286 18.3535714,16.9125 L16.2321429,16.9125 C16.2321429,16.2642857 16.2375,16.0928571 16.2375,15.3482143 C15.7017857,15.6696429 15.0160714,15.6910714 14.4,15.6803571 C14.4,16.4678571 14.3946429,16.125 14.3946429,16.9125 L11.775,16.9125 C11.5017857,16.6071429 11.6303571,16.7464286 10.95,15.9803571 C10.7785714,16.1678571 10.2642857,16.725 10.0875,16.9125 L5.69464286,16.9125 L5.69464286,11.9678571 L10.1464286,11.9678571 C10.4142857,12.2678571 10.2964286,12.1339286 10.9767857,12.8892857 C11.1482143,12.7017857 11.6303571,12.1714286 11.8178571,11.9678571 L14.925,11.9678571 C15.45,11.9678571 15.8892857,12.0696429 16.2267857,12.2678571 L16.2267857,11.9678571 C19.1357143,11.9678571 19.6714286,11.8928571 20.2821429,12.2410714 L20.2821429,11.9678571 L24.4714286,11.9678571 L24.4714286,12.2464286 C25.0821429,11.8767857 25.5214286,11.9678571 27.9482143,11.9678571 L27.9482143,12.2357143 C28.5,11.9196429 28.8375,11.9571429 30.8571429,11.9678571 L30.8571429,2.57142857 C30.8571429,1.15178571 29.7053571,0 28.2857143,0 L2.57142857,0 C1.15178571,0 0,1.15178571 0,2.57142857 L0,8.45357143 C0.503571429,7.28035714 1.05535714,5.98928571 1.2375,5.56607143 L3.36428571,5.56607143 C3.59464286,6.10714286 3.45,5.76428571 3.84642857,6.69642857 L3.84642857,5.56607143 L6.31071429,5.56607143 C6.46607143,5.89821429 6.90535714,6.85178571 7.05535714,7.17321429 C7.36607143,6.44464286 7.59642857,5.89285714 7.73035714,5.56607143 L13.2482143,5.56607143 C13.2482143,5.56071429 13.8642857,5.56607143 13.8696429,5.56607143 C16.2107143,5.57678571 16.7410714,5.52321429 17.3196429,5.85 L17.3196429,5.56607143 L19.4571429,5.56607143 L19.4571429,6.06428571 C19.8642857,5.7375 20.4160714,5.56607143 21.1017857,5.56607143 L22.5803571,5.56607143 C22.5803571,5.59285714 22.6821429,5.58214286 22.7035714,5.58214286 L24.4392857,5.58214286 C24.6642857,6.10714286 24.5785714,5.90357143 24.9107143,6.68571429 L24.9107143,5.58214286 L27.2303571,5.58214286 C27.4928571,6.01071429 27.1767857,5.48571429 27.8303571,6.56785714 L27.8303571,5.58214286 L29.9678571,5.58214286 L29.9678571,10.5107143 L27.7392857,10.5107143 C27.45,10.0285714 27.6642857,10.3928571 27.0321429,9.3375 L27.0321429,10.5107143 L24.2035714,10.5107143 C23.8607143,9.71785714 24.1982143,10.4946429 23.85,9.69107143 L22.8321429,9.69107143 C22.6071429,10.2267857 22.7142857,9.96964286 22.4892857,10.5107143 L21.0535714,10.5107143 C20.3946429,10.5107143 19.8589286,10.35 19.4625,10.0339286 L19.4625,10.5107143 L15.9,10.5107143 C15.8839286,9.76607143 15.8946429,9.18214286 15.8946429,9.18214286 C15.7982143,9.16607143 15.7125,9.17142857 15.3696429,9.17142857 L15.3696429,10.5160714 L8.11071429,10.5160714 L8.11071429,9.90535714 C7.97678571,10.2053571 7.96607143,10.2214286 7.8375,10.5160714 L6.25714286,10.5160714 C6.04285714,10.0392857 6.10178571,10.1732143 5.98392857,9.90535714 L5.98392857,10.5160714 L3.15,10.5160714 C2.925,9.975 3.03214286,10.2321429 2.80714286,9.69642857 L1.77857143,9.69642857 C1.55357143,10.2321429 1.66071429,9.975 1.43571429,10.5160714 L0.0107142857,10.5160714 L0.0107142857,21.4285714 C0.0107142857,22.8482143 1.1625,24 2.58214286,24 L28.3017857,24 C29.7214286,24 30.8732143,22.8482143 30.8732143,21.4285714 L30.8732143,16.5857143 C30.1928571,17.0303571 29.1214286,16.9125 27.2571429,16.9125 Z M29.2017857,13.4571429 L30.8142857,13.4571429 L30.8142857,12.675 L29.0517857,12.675 C28.3660714,12.675 27.7767857,13.0285714 27.7767857,13.7839286 C27.7767857,15.5517857 30.0642857,14.4696429 30.0642857,15.2517857 C30.0642857,15.525 29.8339286,15.5946429 29.6142857,15.5946429 L27.9,15.5946429 L27.8946429,16.3875 L29.6089286,16.3875 C30.0589286,16.3875 30.5517857,16.2910714 30.8142857,15.9107143 L30.8142857,14.5285714 C30.2517857,13.7892857 28.7089286,14.4589286 28.7089286,13.8053571 C28.7089286,13.4946429 28.9553571,13.4571429 29.2017857,13.4571429 L29.2017857,13.4571429 Z M26.1482143,15.5892857 L24.4232143,15.5892857 L24.4178571,16.3821429 L26.1428571,16.3821429 C26.9357143,16.3821429 27.5464286,16.0821429 27.5464286,15.2035714 C27.5464286,13.425 25.2482143,14.6035714 25.2482143,13.7946429 C25.2482143,13.4946429 25.5107143,13.4517857 25.7410714,13.4517857 L27.3696429,13.4517857 L27.3696429,12.6696429 L25.5910714,12.6696429 C24.9053571,12.6696429 24.3321429,13.0232143 24.3321429,13.7785714 C24.3321429,15.5464286 26.6196429,14.4482143 26.6196429,15.2464286 C26.6142857,15.5357143 26.3678571,15.5892857 26.1482143,15.5892857 L26.1482143,15.5892857 Z M23.8875,13.4410714 L23.8875,12.675 L20.9303571,12.675 L20.925,16.3875 L23.8821429,16.3875 L23.8875,15.6214286 L21.8196429,15.6053571 L21.8196429,14.8660714 L23.85,14.8660714 L23.85,14.1107143 L21.825,14.1107143 L21.825,13.4410714 L23.8875,13.4410714 Z M20.8714286,7.65 C20.8553571,7.66071429 20.7964286,7.76785714 20.7964286,8.05714286 C20.7964286,8.37857143 20.8446429,8.46964286 20.8553571,8.48035714 C20.8660714,8.48571429 20.9142857,8.50714286 21.0375,8.50714286 L21.4285714,7.60178571 C21.3696429,7.60178571 21.3160714,7.59642857 21.2625,7.59642857 C20.9625,7.59642857 20.8875,7.63392857 20.8714286,7.65 Z M21.9898214,7.11071429 L21.9798214,7.11071429 L21.9898214,7.11071429 Z M21.0964286,6.27321429 C19.8375,6.27321429 19.275,6.91607143 19.275,8.16428571 C19.275,9.35357143 19.8214286,9.98571429 21.0428571,9.98571429 L22.0714286,9.98571429 L22.4142857,9.16607143 L24.2517857,9.16607143 L24.6053571,9.98571429 L26.4107143,9.98571429 L26.4107143,7.20535714 L28.0821429,9.98571429 L29.3464286,9.98571429 L29.3464286,6.28928571 L28.4410714,6.28928571 L28.4410714,8.86607143 L26.8821429,6.28928571 L25.5267857,6.28928571 L25.5267857,9.79285714 L24.0321429,6.28928571 L22.7035714,6.28928571 L21.4446429,9.20892857 L21.0482143,9.20892857 C20.3357143,9.20892857 20.1857143,8.775 20.1857143,8.14285714 C20.1857143,6.86785714 21.0267857,7.07142857 21.9589286,7.0875 L21.9589286,6.27321429 L21.0964286,6.27321429 Z M23.3517857,6.92142857 L23.9517857,8.4 L22.7303571,8.4 L23.3517857,6.92142857 Z M17.9357143,6.27857143 L17.9357143,9.99107143 L18.8410714,9.99107143 L18.8410714,6.27857143 L17.9357143,6.27857143 Z"/></svg>