<svg xmlns="http://www.w3.org/2000/svg" width="31" height="24" viewBox="0 0 31 24"><path fill="#C4C4C4" d="M25.8696429,20.2125 C25.8696429,20.5767857 25.6232143,20.8392857 25.2696429,20.8392857 C24.9053571,20.8392857 24.6696429,20.5607143 24.6696429,20.2125 C24.6696429,19.8642857 24.9053571,19.5857143 25.2696429,19.5857143 C25.6232143,19.5857143 25.8696429,19.8642857 25.8696429,20.2125 Z M9.21964286,19.5857143 C8.83928571,19.5857143 8.61964286,19.8642857 8.61964286,20.2125 C8.61964286,20.5607143 8.83928571,20.8392857 9.21964286,20.8392857 C9.56785714,20.8392857 9.80357143,20.5767857 9.80357143,20.2125 C9.79821429,19.8642857 9.56785714,19.5857143 9.21964286,19.5857143 Z M15.5142857,19.5696429 C15.225,19.5696429 15.0482143,19.7571429 15.0053571,20.0357143 L16.0285714,20.0357143 C15.9803571,19.7303571 15.7928571,19.5696429 15.5142857,19.5696429 Z M21.2892857,19.5857143 C20.925,19.5857143 20.7053571,19.8642857 20.7053571,20.2125 C20.7053571,20.5607143 20.925,20.8392857 21.2892857,20.8392857 C21.6535714,20.8392857 21.8892857,20.5767857 21.8892857,20.2125 C21.8892857,19.8642857 21.6535714,19.5857143 21.2892857,19.5857143 Z M26.9625,20.9839286 C26.9625,21 26.9785714,21.0107143 26.9785714,21.0428571 C26.9785714,21.0589286 26.9625,21.0696429 26.9625,21.1017857 C26.9464286,21.1178571 26.9464286,21.1285714 26.9357143,21.1446429 C26.9196429,21.1607143 26.9089286,21.1714286 26.8767857,21.1714286 C26.8607143,21.1875 26.85,21.1875 26.8178571,21.1875 C26.8017857,21.1875 26.7910714,21.1875 26.7589286,21.1714286 C26.7428571,21.1714286 26.7321429,21.1553571 26.7160714,21.1446429 C26.7,21.1285714 26.6892857,21.1178571 26.6892857,21.1017857 C26.6732143,21.075 26.6732143,21.0589286 26.6732143,21.0428571 C26.6732143,21.0160714 26.6732143,21 26.6892857,20.9839286 C26.6892857,20.9571429 26.7053571,20.9410714 26.7160714,20.925 C26.7321429,20.9089286 26.7428571,20.9089286 26.7589286,20.8982143 C26.7857143,20.8821429 26.8017857,20.8821429 26.8178571,20.8821429 C26.8446429,20.8821429 26.8607143,20.8821429 26.8767857,20.8982143 C26.9035714,20.9142857 26.9196429,20.9142857 26.9357143,20.925 C26.9517857,20.9357143 26.9464286,20.9571429 26.9625,20.9839286 Z M26.8446429,21.0589286 C26.8714286,21.0589286 26.8714286,21.0428571 26.8875,21.0428571 C26.9035714,21.0267857 26.9035714,21.0160714 26.9035714,21 C26.9035714,20.9839286 26.9035714,20.9732143 26.8875,20.9571429 C26.8714286,20.9571429 26.8607143,20.9410714 26.8285714,20.9410714 L26.7428571,20.9410714 L26.7428571,21.1285714 L26.7857143,21.1285714 L26.7857143,21.0535714 L26.8017857,21.0535714 L26.8607143,21.1285714 L26.9035714,21.1285714 L26.8446429,21.0589286 L26.8446429,21.0589286 Z M30.8571429,2.57142857 L30.8571429,21.4285714 C30.8571429,22.8482143 29.7053571,24 28.2857143,24 L2.57142857,24 C1.15178571,24 0,22.8482143 0,21.4285714 L0,2.57142857 C0,1.15178571 1.15178571,0 2.57142857,0 L28.2857143,0 C29.7053571,0 30.8571429,1.15178571 30.8571429,2.57142857 Z M3.42857143,10.05 C3.42857143,14.1482143 6.75535714,17.4696429 10.8482143,17.4696429 C12.3053571,17.4696429 13.7357143,17.0303571 14.9464286,16.2321429 C11.0410714,13.0553571 11.0678571,7.06071429 14.9464286,3.88392857 C13.7357143,3.08035714 12.3053571,2.64642211 10.8482143,2.64642211 C6.75535714,2.64107143 3.42857143,5.96785714 3.42857143,10.05 Z M15.4285714,15.8785714 C19.2053571,12.9321429 19.1892857,7.18928571 15.4285714,4.22678571 C11.6678571,7.18928571 11.6517857,12.9375 15.4285714,15.8785714 Z M7.80535714,19.9660714 C7.80535714,19.5 7.5,19.1946429 7.01785714,19.1785714 C6.77142857,19.1785714 6.50892857,19.2535714 6.33214286,19.5267857 C6.20357143,19.3071429 5.98392857,19.1785714 5.67857143,19.1785714 C5.475,19.1785714 5.27142857,19.2535714 5.11071429,19.4678571 L5.11071429,19.2321429 L4.67142857,19.2321429 L4.67142857,21.1982143 L5.11071429,21.1982143 C5.11071429,20.1857143 4.97678571,19.5803571 5.59285714,19.5803571 C6.13928571,19.5803571 6.03214286,20.1267857 6.03214286,21.1982143 L6.45535714,21.1982143 C6.45535714,20.2178571 6.32142857,19.5803571 6.9375,19.5803571 C7.48392857,19.5803571 7.37678571,20.1160714 7.37678571,21.1982143 L7.81607143,21.1982143 L7.81607143,19.9660714 L7.80535714,19.9660714 Z M10.2107143,19.2321429 L9.7875,19.2321429 L9.7875,19.4678571 C9.64285714,19.2910714 9.43928571,19.1785714 9.16071429,19.1785714 C8.60892857,19.1785714 8.18571429,19.6178571 8.18571429,20.2125 C8.18571429,20.8125 8.60892857,21.2464286 9.16071429,21.2464286 C9.43928571,21.2464286 9.64285714,21.1446429 9.7875,20.9571429 L9.7875,21.2035714 L10.2107143,21.2035714 L10.2107143,19.2321429 Z M12.3803571,20.6035714 C12.3803571,19.8 11.1535714,20.1642857 11.1535714,19.7892857 C11.1535714,19.4839286 11.7910714,19.5321429 12.1446429,19.7303571 L12.3214286,19.3821429 C11.8178571,19.0553571 10.7035714,19.0607143 10.7035714,19.8214286 C10.7035714,20.5875 11.9303571,20.2660714 11.9303571,20.625 C11.9303571,20.9625 11.2071429,20.9357143 10.8214286,20.6678571 L10.6339286,21.0053571 C11.2339286,21.4125 12.3803571,21.3267857 12.3803571,20.6035714 L12.3803571,20.6035714 Z M14.2767857,21.1017857 L14.1589286,20.7375 C13.9553571,20.85 13.5053571,20.9732143 13.5053571,20.5178571 L13.5053571,19.6285714 L14.2071429,19.6285714 L14.2071429,19.2321429 L13.5053571,19.2321429 L13.5053571,18.6321429 L13.0660714,18.6321429 L13.0660714,19.2321429 L12.6589286,19.2321429 L12.6589286,19.6232143 L13.0660714,19.6232143 L13.0660714,20.5178571 C13.0660714,21.4607143 13.9928571,21.2892857 14.2767857,21.1017857 L14.2767857,21.1017857 Z M14.9892857,20.3839286 L16.4625,20.3839286 C16.4625,19.5160714 16.0660714,19.1732143 15.5303571,19.1732143 C14.9625,19.1732143 14.5553571,19.5964286 14.5553571,20.2071429 C14.5553571,21.3053571 15.7660714,21.4875 16.3660714,20.9678571 L16.1625,20.6464286 C15.7446429,20.9892857 15.1125,20.9571429 14.9892857,20.3839286 L14.9892857,20.3839286 Z M18.1553571,19.2321429 C17.9089286,19.125 17.5339286,19.1357143 17.3410714,19.4678571 L17.3410714,19.2321429 L16.9017857,19.2321429 L16.9017857,21.1982143 L17.3410714,21.1982143 L17.3410714,20.0892857 C17.3410714,19.4678571 17.85,19.5482143 18.0267857,19.6392857 L18.1553571,19.2321429 L18.1553571,19.2321429 Z M18.7232143,20.2125 C18.7232143,19.6017857 19.3446429,19.4035714 19.8321429,19.7625 L20.0357143,19.4142857 C19.4142857,18.9267857 18.2839286,19.1946429 18.2839286,20.2178571 C18.2839286,21.2785714 19.4839286,21.4928571 20.0357143,21.0214286 L19.8321429,20.6732143 C19.3392857,21.0214286 18.7232143,20.8125 18.7232143,20.2125 Z M22.2964286,19.2321429 L21.8571429,19.2321429 L21.8571429,19.4678571 C21.4125,18.8785714 20.2553571,19.2107143 20.2553571,20.2125 C20.2553571,21.2410714 21.4553571,21.5357143 21.8571429,20.9571429 L21.8571429,21.2035714 L22.2964286,21.2035714 L22.2964286,19.2321429 L22.2964286,19.2321429 Z M24.1017857,19.2321429 C23.9732143,19.1678571 23.5125,19.0767857 23.2875,19.4678571 L23.2875,19.2321429 L22.8642857,19.2321429 L22.8642857,21.1982143 L23.2875,21.1982143 L23.2875,20.0892857 C23.2875,19.5 23.7696429,19.5375 23.9732143,19.6392857 L24.1017857,19.2321429 L24.1017857,19.2321429 Z M26.2607143,18.4339286 L25.8375,18.4339286 L25.8375,19.4678571 C25.3982143,18.8839286 24.2357143,19.1946429 24.2357143,20.2125 C24.2357143,21.2517857 25.4410714,21.5303571 25.8375,20.9571429 L25.8375,21.2035714 L26.2607143,21.2035714 L26.2607143,18.4339286 Z M26.6678571,14.4107143 L26.6678571,14.6571429 L26.7107143,14.6571429 L26.7107143,14.4107143 L26.8125,14.4107143 L26.8125,14.3678571 L26.5660714,14.3678571 L26.5660714,14.4107143 L26.6678571,14.4107143 L26.6678571,14.4107143 Z M27.0214286,21.0428571 C27.0214286,21.0160714 27.0214286,20.9839286 27.0053571,20.9571429 C26.9892857,20.9410714 26.9785714,20.9142857 26.9625,20.8982143 C26.9464286,20.8821429 26.9196429,20.8714286 26.9035714,20.8553571 C26.8767857,20.8553571 26.8446429,20.8392857 26.8178571,20.8392857 C26.8017857,20.8392857 26.775,20.8553571 26.7428571,20.8553571 C26.7160714,20.8714286 26.7,20.8821429 26.6839286,20.8982143 C26.6571429,20.9142857 26.6410714,20.9410714 26.6410714,20.9571429 C26.625,20.9839286 26.625,21.0160714 26.625,21.0428571 C26.625,21.0589286 26.625,21.0857143 26.6410714,21.1178571 C26.6410714,21.1339286 26.6571429,21.1607143 26.6839286,21.1767857 C26.7,21.1928571 26.7107143,21.2035714 26.7428571,21.2196429 C26.7696429,21.2357143 26.8017857,21.2357143 26.8178571,21.2357143 C26.8446429,21.2357143 26.8767857,21.2357143 26.9035714,21.2196429 C26.9196429,21.2035714 26.9464286,21.1928571 26.9625,21.1767857 C26.9785714,21.1607143 26.9892857,21.1339286 27.0053571,21.1178571 C27.0214286,21.0857143 27.0214286,21.0589286 27.0214286,21.0428571 Z M27.1928571,14.3625 L27.1178571,14.3625 L27.0321429,14.55 L26.9464286,14.3625 L26.8714286,14.3625 L26.8714286,14.6517857 L26.9142857,14.6517857 L26.9142857,14.4321429 L27,14.6196429 L27.0589286,14.6196429 L27.1339286,14.4321429 L27.1339286,14.6517857 L27.1928571,14.6517857 L27.1928571,14.3625 L27.1928571,14.3625 Z M27.4285714,10.05 C27.4285714,5.96785714 24.1017857,2.64107143 20.0089286,2.64107143 C18.5517857,2.64107143 17.1214286,3.08035714 15.9107143,3.87857143 C19.7732143,7.05535714 19.8321429,13.0660714 15.9107143,16.2267857 C17.1214286,17.0303571 18.5625,17.4642922 20.0089286,17.4642922 C24.1017857,17.4696429 27.4285714,14.1482143 27.4285714,10.05 Z"/></svg>